<?xml version="1.0" standalone="no"?>
<!DOCTYPE svg PUBLIC "-//W3C//DTD SVG 1.1//EN" "http://www.w3.org/Graphics/SVG/1.1/DTD/svg11.dtd" >
<svg xmlns="http://www.w3.org/2000/svg">
<metadata>Generated by IcoMoon</metadata>
<defs>
<font id="icomoon" horiz-adv-x="512">
<font-face units-per-em="512" ascent="480" descent="-32" />
<missing-glyph horiz-adv-x="512" />
<glyph unicode="&#x20;" d="" horiz-adv-x="256" />
<glyph unicode="&#xe600;" d="M107.054 296.735c-14.042 0.008-25.422-11.396-25.427-25.426l0.020-106.485c0.002-14.078 11.39-25.438 25.433-25.436 14.052-0.001 25.435 11.365 25.419 25.435v106.499c-0.006 14.027-11.401 25.424-25.445 25.413zM312.114 392.359l17.748 32.411c0.947 1.694 0.325 3.851-1.392 4.808-1.73 0.917-3.869 0.294-4.784-1.411l-17.928-32.75c-31.527 14.022-68.386 13.886-99.537 0.048l-17.945 32.664c-0.934 1.725-3.081 2.347-4.776 1.408-1.727-0.928-2.356-3.089-1.399-4.779l17.756-32.387c-34.888-17.994-57.523-52.255-57.505-91.59l227.341 0.023c0.006 39.329-22.743 73.519-57.579 91.555zM203.835 342.276c-5.274 0.011-9.572 4.299-9.572 9.596 0.002 5.276 4.288 9.614 9.581 9.613 5.311 0.004 9.606-4.337 9.613-9.611 0.002-5.292-4.304-9.596-9.622-9.598zM308.133 342.293c-5.295-0.005-9.605 4.289-9.604 9.603 0.018 5.261 4.303 9.604 9.608 9.622 5.267-0.016 9.587-4.355 9.583-9.629 0.011-5.301-4.293-9.596-9.587-9.596zM142.352 291.934l0.038-165.022c-0.012-15.011 12.129-27.126 27.133-27.129l18.495-0.008v-56.343c-0.002-14.026 11.4-25.432 25.411-25.432 14.051 0 25.434 11.414 25.438 25.449v56.332l34.33 0.006v-56.341c-0.003-14.019 11.406-25.441 25.419-25.419 14.050-0.009 25.426 11.405 25.423 25.442v56.325l18.538 0.015c14.968-0.006 27.142 12.127 27.145 27.138l-0.028 165.026-227.342-0.039zM430.354 271.347c-0.003 14.043-11.385 25.426-25.429 25.422-14.040 0.011-25.422-11.391-25.419-25.436l0.018-106.486c-0.001-14.058 11.376-25.42 25.428-25.424 14.041 0.002 25.417 11.366 25.421 25.436l-0.019 106.488z" />
<glyph unicode="&#xe601;" d="M423.754 127.737c-13.494-39.14-49.969-108.441-91.588-109.193-27.609-0.523-36.465 16.355-68.025 16.355-31.543 0-41.397-15.849-67.502-16.879-44.153-1.677-108.393 100.042-108.393 188.75 0 81.495 52.872 121.895 102.488 122.639 26.604 0.475 51.734-17.942 67.977-17.942 16.283 0 46.811 22.146 78.895 18.891 13.42-0.556 51.137-5.413 75.344-40.809-64.231-41.912-58.138-129.582 10.804-161.812zM338.021 430c-48.52-1.955-88.103-52.847-82.565-94.948 44.823-3.484 87.856 46.779 82.565 94.948z" />
<glyph unicode="&#xe602;" d="M280.005 430h-55.268v-269.105c-65.484 12.93-133.783-45.236-114.443-100.027 25.569-72.453 169.655-50.63 169.766 47.092 0.027 23.93 0.003 123.592-0.022 214.006 51.662-38.163 100.493-61.993 90.801-126.483 113.191 136.489-90.834 167.977-90.834 234.517z" />
<glyph unicode="&#xe603;" d="M255.5 323.999c-55.141 0-100-44.859-100-99.999 0-55.141 44.859-100 100-100s100 44.859 100 100c0 55.14-44.859 99.999-100 99.999zM429.169 204.66l32.83 19.34-32.83 19.34c-17.527 10.325-23.547 32.791-13.53 50.496l18.762 33.163-38.103 0.334c-20.341 0.179-36.786 16.624-36.965 36.965l-0.334 38.102-33.163-18.762c-17.705-10.017-40.171-3.997-50.496 13.53l-19.34 32.831-19.34-32.83c-10.325-17.527-32.791-23.547-50.496-13.53l-33.163 18.761-0.334-38.103c-0.179-20.341-16.624-36.786-36.965-36.965l-38.102-0.333 18.762-33.163c10.017-17.705 3.997-40.171-13.53-50.496l-32.831-19.34 32.83-19.34c17.527-10.325 23.547-32.791 13.53-50.496l-18.761-33.163 38.103-0.334c20.341-0.179 36.786-16.624 36.965-36.965l0.334-38.103 33.163 18.762c17.705 10.017 40.171 3.997 50.496-13.53l19.34-32.83 19.34 32.83c10.325 17.527 32.791 23.547 50.496 13.53l33.163-18.762 0.334 38.103c0.179 20.341 16.624 36.786 36.965 36.965l38.103 0.334-18.762 33.163c-10.018 17.705-3.998 40.171 13.529 50.496zM255.5 94c-71.683 0-130 58.317-130 130s58.317 129.999 130 129.999 130-58.317 130-129.999c0-71.683-58.317-130-130-130z" />
<glyph unicode="&#xe604;" d="M203.392 197.755l-95.11-164.735 26.015-15.020 95.226 164.937c-9.183 3.952-17.939 8.91-26.131 14.818zM284.562 430c-65.81 0-119.156-53.345-119.156-119.156 0-65.809 53.347-119.155 119.156-119.155 65.807 0 119.155 53.347 119.155 119.155 0.001 65.811-53.348 119.156-119.155 119.156zM345.717 388.177c21.645-17.16 34.148-41.572 36.807-67.033-4.168 18.297-14.004 35.592-29.346 50.145-77.198 73.231-195.254-20.13-138.727-106.731 11.473-17.574 30.311-29.916 51.693-33.858 19.977-3.686 39.544 0.503 55.093 11.787 19.801 14.37 30.675 39.858 27.696 64.936-6.413 54.010-67.951 67.478-98.639 36.858-14.43-14.397-18.467-34.152-10.8-52.844 8.93-21.762 34.213-32.532 55.509-21.064 28.647 15.428 17.578 55.89-10.407 50.332-9.069-1.802-11.693-16.978 3.485-17.713 7.431-0.36 7.497-11.805-1.636-16.724-11.539-6.209-25.245-0.164-30.249 12.021-4.879 11.896-2.384 23.999 6.849 33.212 20.928 20.883 63.691 9.77 67.96-26.206 4.063-34.248-24.173-63.741-61.589-56.844-16.301 3.007-31.196 12.716-39.849 25.974-46.042 70.547 52.357 139.587 111.184 83.769 35.589-33.77 31.635-77.902 14.187-105.136-26.795-41.821-84.464-56.891-131.735-19.412-42.673 33.832-49.841 95.85-16.009 138.523 33.831 42.672 95.85 49.839 138.523 16.008z" />
<glyph unicode="&#xe605;" d="M107.041 356.309c-8.495 11.631 9.077 24.416 17.547 12.814 6.263-8.574 16.514-14.848 28.001-17.805-11.972 18.625-19.068 38.791-26.273 61.829-5.365 17.143 19.258 24.109 24.623 6.943 4.255-13.605 8.357-25.835 13.512-37.134 6.111 8.521 7.896 16.979 7.393 32.548-0.467 14.487 21.258 14.964 21.719 0.703 0.699-21.74-5.021-36.635-10.65-45.215-3.942-6.010-3.448-13.914 1.223-19.378 13.182-15.412 29.538-27.44 31.879-29.297-9.765-2.337-18.738-5.59-27.627-9.598-2.924 2.34-6.838 5.486-9.463 7.852-4.808 4.329-12.182 5.75-18.633 6.219-20.956 1.527-40.577 12.164-53.251 29.519zM226.413 200.475c-2.875 12.154-13.301 20.094-23.289 17.73-9.986-2.36-15.755-14.128-12.882-26.28 2.874-12.155 13.3-20.093 23.288-17.731 9.99 2.362 15.755 14.127 12.883 26.281zM300.419 322.318c9.765-2.337 18.737-5.59 27.626-9.598 2.925 2.34 6.839 5.486 9.463 7.852 4.809 4.329 12.183 5.75 18.633 6.219 20.954 1.526 40.576 12.163 53.25 29.518 8.495 11.631-9.078 24.416-17.548 12.814-6.263-8.574-16.513-14.848-28-17.805 11.972 18.625 19.067 38.791 26.273 61.829 5.365 17.143-19.258 24.109-24.624 6.943-4.254-13.605-8.356-25.835-13.512-37.134-6.11 8.521-7.896 16.979-7.393 32.548 0.468 14.487-21.257 14.964-21.718 0.703-0.699-21.74 5.021-36.635 10.65-45.215 3.941-6.010 3.448-13.914-1.223-19.378-13.181-15.411-29.536-27.439-31.877-29.296zM129.796 261.391c4.648-13.551 24.359-20.077 33.203-14.798-6.068 9.865-19.463 16.71-33.203 14.798zM308.876 218.205c-9.988 2.363-20.415-5.576-23.288-17.73s2.892-23.919 12.881-26.281c9.989-2.361 20.415 5.576 23.289 17.731 2.873 12.152-2.895 23.92-12.882 26.28zM445.964 292.436c-6.842-44.229-43.594-74.775-70.959-80.185-3.181-105.643-46.129-194.251-119.005-194.251s-115.823 88.608-119.007 194.251c-27.363 5.409-64.115 35.955-70.957 80.185 34.271 13.393 72.121 13.391 103.886-5.934 18.193 12.698 50.171 27.016 86.078 27.016s67.885-14.317 86.078-27.016c31.765 19.324 69.615 19.326 103.886 5.934zM416.286 276.219c-38.586 7.159-66.776-11.188-75.103-18.196-15.898 11.098-43.415 31.63-85.184 31.63s-69.286-20.532-85.183-31.63c-8.327 7.009-36.519 25.355-75.104 18.196 9.244-19.628 31.026-43.132 64.562-44.243 0.719-23.858 0.559-91.793 30.798-144.608 14.496-25.318 35.513-45.502 64.927-45.502s50.431 20.184 64.928 45.502c30.238 52.815 30.078 120.75 30.797 144.608 33.537 1.111 55.318 24.615 64.562 44.243zM349.002 246.593c8.843-5.279 28.555 1.247 33.202 14.798-13.74 1.912-27.135-4.933-33.202-14.798zM256 74.976c-39.469 0-64.155 50.441-23.379 50.441 7.31 0 39.449 0 46.759 0 40.775 0 16.088-50.441-23.38-50.441zM252.603 110.917c-2.26 0-12.195 0-14.455 0-12.607 0-4.975-15.595 7.228-15.595s19.834 15.595 7.227 15.595z" />
<glyph unicode="&#xe606;" d="M313.042 324.323h-198.478c-21.879 0-39.615-14.867-39.615-39.971s17.736-39.972 39.614-39.972h198.479c21.88 0 39.615 14.868 39.615 39.972s-17.735 39.971-39.615 39.971zM313.042 268.635h-198.479c-20.816 0-20.822 31.436 0.001 31.436h198.478c20.819-0.001 20.822-31.436 0-31.436zM405.398 375.637c-21.063 0-38.199-17.135-38.199-38.199 0-21.062 17.136-38.199 38.199-38.199s38.198 17.137 38.198 38.199c0.001 21.064-17.135 38.199-38.198 38.199zM405.398 319.663c-9.816 0-17.775 7.958-17.775 17.774s7.959 17.775 17.775 17.775 17.773-7.959 17.773-17.775-7.956-17.774-17.773-17.774zM354.738 356.512c5.152 10.991 9.036 16.2 16.296 23.219-39.971 33.991-103.155 50.269-137.87 50.269-30.396 0-99.995-4.584-133.648-89.509h227.036c-3.033 4.75-6.657 12.853-8.391 18.342 10.758 1.5 23.492 0.48 36.577-2.321zM214.659 18c-21.29 0-38.011 7.989-51.099 24.419-23.168-3.982-44.307 4.227-57.123 20.142-10.568 13.126-14.552 30.535-10.979 47.873-18.001 10.213-28.072 28.318-26.974 48.577 1.091 20.115 13.491 37.597 32.431 45.809-2.017 11.949-2.63 19.742-2.713 27.733 7.82-3.499 15.002-2.735 24.092-2.735 0.268-14.947 1.699-27.556 5.711-43.31-24.155 1.991-35.51-14.32-35.607-30.496-0.098-16.287 10.232-29.93 32.752-30.204-8.581-13.993-12.195-29.616-4.143-44.001 8.448-15.088 28.219-23.603 53.932-13.842 6.451-18.58 21.213-27.165 39.72-27.165 18.435 0 33.244 8.514 39.72 27.165 25.683-9.747 45.482-1.248 53.932 13.848 8.038 14.358 4.46 29.978-4.141 43.995 22.807 0.277 32.853 14.249 32.756 30.205-0.098 16.020-11.258 32.502-35.612 30.495 3.442 13.498 5.401 26.003 5.711 43.31 9.053 0 16.326-0.745 24.090 2.735-0.079-7.955-0.687-15.747-2.711-27.733 18.94-8.212 31.341-25.693 32.431-45.809 1.1-20.259-8.972-38.364-26.973-48.577 3.574-17.341-0.41-34.752-10.98-47.878-12.594-15.638-33.585-24.184-57.121-20.137-13.091-16.43-29.812-24.419-51.102-24.419zM256.222 221.871c-13.905 0-25.727-9.058-29.896-21.58-6.521 2.688-16.377 2.688-22.897 0-4.17 12.522-15.99 21.58-29.895 21.58-17.373 0-31.506-14.135-31.506-31.506 0-17.372 14.133-31.506 31.506-31.506 14.879 0 27.375 10.371 30.656 24.265 7.155 2.942 14.219 2.942 21.373 0 3.282-13.894 15.777-24.265 30.658-24.265 17.373 0 31.506 14.134 31.506 31.506 0.002 17.371-14.132 31.506-31.505 31.506zM173.535 176.196c-7.825 0-14.17 6.344-14.17 14.169s6.345 14.168 14.17 14.168c7.824 0 14.168-6.344 14.168-14.168s-6.344-14.169-14.168-14.169zM256.222 176.196c-7.824 0-14.17 6.344-14.17 14.169s6.346 14.168 14.17 14.168c7.828 0 14.169-6.344 14.169-14.168s-6.341-14.169-14.169-14.169zM230.464 141.124c-6.225 0-11.678-3.251-14.789-8.142-3.113 4.891-8.566 8.142-14.791 8.142-19.574 0-30.9-18.663-67.697-2.856 20.076-33.842 64.936-43.834 82.488-25.204 17.552-18.63 62.412-8.638 82.489 25.204-36.798-15.807-48.125 2.856-67.7 2.856z" />
<glyph unicode="&#xe607;" d="M239.139 388.679l-17.226 16.555 23.666 3.268 10.421 21.498 10.421-21.498 23.666-3.268-17.225-16.555 4.204-23.517-21.066 11.267-21.067-11.267 4.206 23.517zM137.553 101.098l72.119 94.57h-43.702l60.522 79.080h-33.331l62.839 87.252 62.84-87.252h-33.332l60.521-79.080h-43.702l72.12-94.57h-236.894zM297.262 159.374l-6.489-13.386-14.734-2.034 10.725-10.308-2.619-14.644 13.118 7.017 13.117-7.017-2.619 14.644 10.726 10.308-14.734 2.034-6.491 13.386zM274.388 229.833c0-5.983 4.851-10.833 10.833-10.833s10.833 4.85 10.833 10.833-4.851 10.833-10.833 10.833-10.833-4.85-10.833-10.833zM270.536 179.851c0 7.292-5.911 13.203-13.203 13.203s-13.204-5.911-13.204-13.203 5.912-13.204 13.204-13.204 13.203 5.912 13.203 13.204zM246.167 310.333c0-5.983 4.851-10.833 10.833-10.833s10.833 4.85 10.833 10.833-4.851 10.833-10.833 10.833-10.833-4.85-10.833-10.833zM246.167 264.833c0-5.983 4.851-10.833 10.833-10.833s10.833 4.85 10.833 10.833-4.851 10.833-10.833 10.833-10.833-4.85-10.833-10.833zM215.575 229.654l7.801-7.496-1.905-10.65 9.541 5.104 9.54-5.104-1.905 10.65 7.801 7.496-10.717 1.479-4.719 9.735-4.72-9.735-10.717-1.479zM198.388 137.666c0-9.389 7.611-17 17-17s17 7.611 17 17-7.611 17-17 17-17-7.611-17-17zM237 18h38v66.398h-38v-66.398z" />
<glyph unicode="&#xe608;" d="M175.402 413.599c52.759 22.505 110.929 21.308 161.188-0.012l-25.248-43.729c-34.894 13.217-74.268 13.871-110.688 0.001l-25.252 43.74zM409.988 199c-6.002-36.828-25.122-71.253-55.343-95.859l25.253-43.74c45.868 34.438 73.917 85.414 80.583 139.6h-50.493zM410.023 249h50.501c-6.737 55.343-36.012 106.087-80.611 139.624l-25.251-43.734c29.432-24.011 49.28-58.372 55.361-95.89zM102.013 249c6.001 36.828 25.121 71.253 55.342 95.858l-25.253 43.74c-45.869-34.437-73.918-85.412-80.584-139.598h50.495zM311.345 78.141c-36.42-13.868-75.794-13.215-110.688 0.002l-25.246-43.73c50.258-21.318 108.429-22.516 161.188-0.012l-25.254 43.74zM101.976 199h-50.5c6.737-55.341 36.013-106.088 80.611-139.624l25.25 43.735c-29.431 24.009-49.279 58.371-55.361 95.889z" />
<glyph unicode="&#xe609;" d="M361.382 267.78c-0.557-8.008-1.229-19.135-2.006-26.892h30.584c-8.105-28.971-24.856-58.874-49.106-80.641-4.112-12.994-8.104-25.443-16.287-43.056 55.018 30.312 92.185 97.663 96.991 150.588h-60.176zM307.444 265.37c-6.635-72.887-26.922-120.905-48.955-162.099h-77.131c-28.16 52.486-43.287 98.259-48.993 162.099h175.079zM339.341 295.37h-238.846c3.727-109.516 33.545-169.033 63.098-222.099h112.65c28.84 51.451 59.406 113.52 63.098 222.099zM349.25 18h-258.808v30.271h258.808v-30.271zM289.207 389.942c-6.514-28.564-47.93-41.564-62.18-77.439-2.201 50.149 48.014 71.222 29.265 89.971-5.469 5.469-20.793 10.871-36.374-17.031-15.581 27.902-30.905 22.5-36.374 17.031-18.749-18.749 31.466-39.821 29.265-89.971-14.25 35.875-55.666 48.875-62.18 77.439-8.755 38.39 46.511 55.602 69.289 22.509 22.778 33.093 78.044 15.881 69.289-22.509z" />
<glyph unicode="&#xe60a;" d="M280.647 264.962l37.163 64.367c36.938-21.371 61.79-61.312 61.79-107.057h-74.28c0 18.219-9.938 34.151-24.673 42.69zM231.352 179.578l-37.162-64.366c18.183-10.521 39.294-16.541 61.811-16.541s43.628 6.021 61.811 16.541l-37.163 64.368c-14.925-8.652-33.729-9.023-49.297-0.002zM231.353 264.962l-37.163 64.366c-36.938-21.371-61.79-61.312-61.79-107.057h74.279c0 18.22 9.939 34.152 24.674 42.691zM256 193.95c15.64 0 28.32 12.681 28.32 28.321s-12.681 28.318-28.32 28.318-28.321-12.678-28.321-28.318c0-15.64 12.681-28.321 28.321-28.321zM462 224c0-113.771-92.229-206-206-206s-206 92.229-206 206 92.229 206 206 206 206-92.229 206-206zM422 224c0 91.755-74.258 166-166 166-91.755 0-166-74.259-166-166 0-91.755 74.258-166 166-166 91.755 0 166 74.259 166 166z" />
<glyph unicode="&#xe60b;" d="M256.494 103.858c-83.277 0-158.968 57.287-206.494 126.949 47.956 67.222 123.636 113.334 206.494 113.334 83.032 0 158.965-45.31 205.506-112.907-44.129-73.545-119.672-127.376-205.506-127.376zM93.603 230.227c39.783-49.138 98.528-91.363 162.892-91.363 87.675 0 144.426 65.7 163.013 90.981-39.54 46.52-97.718 79.292-163.013 79.292-84.815 0-142.618-55.824-162.892-78.91zM258.31 293.368c-38.312 0-69.368-31.057-69.368-69.368s31.057-69.368 69.368-69.368 69.369 31.057 69.369 69.368-31.058 69.368-69.369 69.368zM258.246 224.023c-9.792-9.791-25.666-9.791-35.458 0s-9.792 25.667 0 35.458c9.792 9.792 25.666 9.792 35.458 0 9.792-9.791 9.792-25.666 0-35.458z" />
<glyph unicode="&#xe60c;" d="M256.417 430c-113.771 0-206-92.229-206-206s92.229-206 206-206 206 92.229 206 206-92.229 206-206 206zM317.385 308.808c0 0-20.604 0-28.789 0-10.162 0-12.28-4.163-12.28-14.678 0-8.75 0-25.404 0-25.404h41.069l-3.951-44.596h-37.118v-133.227h-53.2v132.662h-27.666v45.16h27.666c0 0 0 6.493 0 35.565 0 33.379 17.849 50.807 57.437 50.807 6.484 0 36.833 0 36.833 0v-46.289z" />
<glyph unicode="&#xe60d;" d="M414.212 285.902h-52.041v47.132l11.402 38.918v44.769h-72.888c0 0-18.692-41.091-25.275-56.972-21.669-52.283-44.058-106.304-90.303-115.293v23.17h-135.107v-228.171h135.107v19.718h45.831l50.936-27.893h123.934l56.192 50.225v173.277l-47.788 31.12zM289.87 60.337l-49.494 27.895-55.149-0.058v126.832c0.459 0.062 0.965 0.133 1.508 0.215 64.216 9.617 91.471 75.38 115.518 133.403 4.512 10.886 14.093 32.679 16.896 39.040h25.366v-14.855l-11.4-38.919v-77.045h73.376l26.451-16.879v-147.59l-36.565-32.038h-106.507z" />
<glyph unicode="&#xe60e;" d="M256 251.978c-64.142 0-116.139-51.369-116.139-114.736 0-63.369 51.997-114.742 116.139-114.742 64.143 0 116.139 51.373 116.139 114.742 0 63.366-51.996 114.736-116.139 114.736zM223.076 74.026v123.608l100.804-61.805-100.804-61.803zM133.357 58.497h-48.357c-19.33 0-35 15.67-35 35v86.502c0 19.33 15.67 35 35 35h47.713c-14.269-22.168-22.852-48.82-22.852-77.758 0-29.201 8.74-56.226 23.496-78.744zM108.309 241.999h-30.432c3.93 103.221 75.841 183.502 178.123 183.502s174.193-80.281 178.123-183.502h-30.432c-4.396 84.422-71.1 132.537-147.691 132.381-76.592 0.156-143.296-47.959-147.691-132.381zM427 214.999c19.33 0 35-15.67 35-35v-86.502c0-19.33-15.67-35-35-35h-48.356c14.734 22.488 23.495 49.502 23.495 78.744 0 28.131-8.122 54.869-22.852 77.758h47.713z" />
<glyph unicode="&#xe60f;" d="M341.205 282.857h119.725v-183.795c0-44.77-36.292-81.062-81.062-81.062h-247.735c-44.769 0-81.062 36.293-81.062 81.062v183.795h119.189c-12.2-17.141-19.399-38.087-19.399-60.729 0-57.919 46.953-104.872 104.873-104.872s104.872 46.953 104.872 104.872c-0.001 22.643-7.201 43.589-19.401 60.729zM460.93 348.938v-53.239h-130.483c-19.022 19.315-45.465 31.302-74.714 31.302-29.251 0-55.693-11.986-74.714-31.302h-129.949v53.239c0 27.322 13.532 51.469 34.245 66.154v-87.289h16.62v96.36c3.77 1.516 7.679 2.752 11.704 3.691v-100.052h16.621v102.151c0.625 0.015 1.245 0.047 1.873 0.047h9.598v-102.196h16.62v102.196h221.517c44.77 0 81.062-36.292 81.062-81.062zM423.879 383.103c0 7.181-5.822 13.002-13.003 13.002h-43.821c-7.183 0-13.003-5.821-13.003-13.002v-44.785c0-7.181 5.82-13.002 13.003-13.002h43.821c7.181 0 13.003 5.821 13.003 13.002v44.785zM174.938 222.128c0 24.188 10.698 45.909 27.593 60.729 5.926 5.197 12.613 9.539 19.875 12.842 10.169 4.625 21.447 7.224 33.327 7.224 11.881 0 23.157-2.599 33.326-7.224 7.263-3.303 13.95-7.645 19.876-12.842 16.895-14.82 27.592-36.542 27.592-60.729 0-44.55-36.243-80.794-80.794-80.794s-80.795 36.244-80.795 80.794zM196.286 222.128c0-32.979 26.735-59.712 59.714-59.712s59.713 26.733 59.713 59.712c0 32.98-26.733 59.713-59.713 59.713-32.979 0-59.714-26.733-59.714-59.713z" />
<glyph unicode="&#xe610;" d="M299.823 115.59h-87.647c-6.143 0-11.123-4.98-11.123-11.123s4.98-11.122 11.123-11.122h87.648c6.143 0 11.123 4.979 11.123 11.122s-4.98 11.123-11.124 11.123zM297.822 78.557h-83.645c-6.143 0-11.123-4.98-11.123-11.123s4.98-11.123 11.123-11.123h83.646c6.142 0 11.122 4.98 11.122 11.123s-4.98 11.123-11.123 11.123zM214.75 42.039c21.656-20.018 23.886-24.039 32.53-24.039h16.65c8.45 0 10.532 3.727 33.319 24.039h-82.499zM382.621 308.546c0-75.31-64.767-117.514-64.767-176.943h-29.493c0.025 73.246 64.232 111.827 64.232 176.943 0 121.891-193.188 122.081-193.188 0 0-65.057 63.094-101.976 64.558-176.943h-29.818c0 59.43-64.767 101.634-64.767 176.943 0.001 161.856 253.243 162.021 253.243 0zM313.426 339.457c-8.405-4.93-14.656-12.246-18.203-22.531-9.531-27.631 6.417-50.259-4.042-76.084-6.086-15.027-18.931-22.841-32.418-24.208-2.573-26.637 1.017-63.554 9.356-85.031h-19.127c-9.967 39.868-4.587 110.58 17.601 150.45-13.513-10.344-26.857-38.701-30.722-61.235-47.016 28.204-11.315 118.639 77.555 118.639z" />
<glyph unicode="&#xe611;" d="M381.151 206.16c0-71.312-250.303-71.283-250.303 0 0 15.437 13.202 27.329 33.535 35.679 1.284-8.278 5.223-16.97 10.653-24.079-14.345-8.019-11.112-19.979 9.756-27.191 39.761-13.738 102.559-13.515 142.413 0 21.187 7.185 25.078 18.933 10.363 27.028 5.441 6.87 9.573 15.757 10.917 23.899 19.843-8.33 32.666-20.108 32.666-35.336zM360.216 38.56c-35.78-27.961-173.574-26.858-210.306 0 19.61 40.526 17.295 84.602 5.905 117.037 52.653-24.308 150.574-24.096 202.358 0.927-12.017-34.251-17.755-75.277 2.043-117.964zM334.5 43.966c-7.738 20.266-13.081 58.976-6.203 85.668l-14.395-3.176c-4.831-22.271-2.092-61.013 6.914-86.067 3.224-0.686 11.206 1.401 13.684 3.575zM329.226 410.803c-9.021-17.387-19.593-40.503-24.585-65.279 5.491-4.382 10.442-9.608 14.6-15.796 3.111 29.571 17.069 58.596 27.512 78.179 9.314 17.466-6.63 31.73-31.968 13.852-20.663-14.584-36.771-34.892-47.93-60.403 5.733-0.728 11.329-2.089 16.677-4.032 15.412 33.26 37.892 49.604 45.694 53.479zM167.193 407.907c-9.293 17.423 6.596 31.754 31.968 13.852 20.671-14.586 36.78-34.902 47.939-60.423-5.733-0.739-11.329-2.105-16.677-4.060-13.59 29.219-33.959 47.695-45.702 53.527 9.033-17.409 19.619-40.565 24.605-65.379-5.53-4.434-10.479-9.707-14.601-15.884-3.070 29.635-17.065 58.743-27.532 78.367zM227.929 297.979c0 6.906 4.244 12.504 9.479 12.504 5.233 0 9.478-5.598 9.478-12.504 0-6.907-4.244-12.505-9.478-12.505-5.235 0-9.479 5.598-9.479 12.505zM268.54 297.979c0 6.906 4.244 12.504 9.478 12.504s9.479-5.598 9.479-12.504c0-6.907-4.244-12.505-9.479-12.505-5.234 0-9.478 5.598-9.478 12.505zM358.716 254.467c-7.037 1.541-15.094 2.518-23.424 2.936-0.099 4.955-0.967 9.845-2.557 14.57 5.373 1.345 10.8 2.353 16.203 2.978 2.946 0.343 2.453 4.8-0.517 4.467-5.778-0.669-11.58-1.753-17.32-3.215-2.683 6.134-6.614 11.915-11.679 17.106-0.177 13.898-5.597 27.138-15.494 37.639-11.848 12.574-28.935 19.786-46.883 19.786-17.945 0-35.032-7.212-46.882-19.786-9.897-10.501-15.317-23.74-15.493-37.639-4.95-5.073-8.813-10.709-11.492-16.686-5.171 1.245-10.385 2.191-15.58 2.794-2.974 0.331-3.455-4.124-0.518-4.467 4.808-0.557 9.632-1.415 14.42-2.544-1.693-4.893-2.608-9.967-2.699-15.111-7.644-0.465-15.002-1.407-21.495-2.828-2.907-0.639-1.944-5.029 0.963-4.395 6.242 1.37 13.316 2.281 20.661 2.737 2.532-34.015 39.053-57.183 78.115-57.183 37.705 0 75.593 22.153 78.124 57.292 8.032-0.41 15.796-1.358 22.582-2.847 2.945-0.645 3.837 3.766 0.965 4.396zM318.424 257.487c-7.68-0.309-15.175-1.085-21.913-2.339-0.060 0.59-0.132 1.17-0.223 1.744 6.426 3.878 13.297 7.223 20.409 9.981 0.987-2.871 1.622-6 1.727-9.386zM211.836 286.284c-1.77 29.743 19.713 47.592 45.21 47.592 25.257 0 46.994-17.592 45.213-47.592 3.63-3.297 8.951-7.722 12.703-15.267-6.866-2.672-13.515-5.873-19.773-9.556-1.473 4.465-4.274 8.767-8.124 11.079-4.062 2.165-9.113 1.211-13.462-0.28-2.165 3.745-7.039 9.981-15.495 9.981-8.612 0-13.368-6.422-15.391-10.111-4.451 1.574-9.661 2.629-13.828 0.41-3.809-2.283-6.626-6.553-8.115-11.045-6.73 3.957-13.91 7.354-21.329 10.137 3.738 7.168 8.775 11.368 12.391 14.652zM288.247 251.943c0.030-5.541-2.269-13.837-7.798-13.837-3.523 0-8.211 1.672-12.297 3.54-3.61 1.648-5.927 5.255-5.927 9.223v0.009c0 3.92 2.137 7.543 5.562 9.446 4.839 2.686 10.257 5.058 13.734 5.058 3.907-0.001 6.697-7.494 6.726-13.439zM253.725 250.877v-0.009c0-3.967-2.319-7.575-5.928-9.223-4.086-1.868-8.772-3.54-12.297-3.54-5.54 0-7.826 8.319-7.798 13.837 0.025 4.925 2.366 13.438 6.727 13.438 3.476 0 8.897-2.372 13.733-5.058 3.43-1.904 5.563-5.521 5.563-9.445zM219.67 256.93c-0.093-0.581-0.169-1.172-0.229-1.768-7.282 1.35-15.446 2.146-23.771 2.392 0.12 3.62 0.847 6.946 1.956 9.975 7.696-2.865 15.126-6.43 22.044-10.599zM195.836 253.059c8.242-0.258 16.312-1.071 23.462-2.448 0.017-0.437 0.043-0.868 0.075-1.298-6.506-1.042-13.752-3.151-20.902-5.962-1.384 3.139-2.273 6.393-2.635 9.708zM257.046 212.487c-24.851 0-46.9 10.819-56.481 26.823 6.706 2.611 13.462 4.581 19.465 5.552 1.193-5.313 4.017-10.561 8.496-13.442 7.969-4.797 21.383 1.357 29.449 5.97 8.026-4.588 21.53-10.738 29.45-5.97 4.457 2.868 7.299 8.094 8.498 13.454 5.551-0.894 11.747-2.639 17.957-4.96-10.114-17.622-33.695-27.427-56.834-27.427zM296.578 249.325c0.031 0.42 0.058 0.844 0.073 1.274 6.607 1.273 14.003 2.069 21.597 2.39-0.342-3.067-1.131-6.083-2.351-9.001-6.635 2.502-13.296 4.378-19.319 5.337zM245.64 227.542c5.169 1.478 7.651 2.538 12.297 5.246 4.714-2.878 7.014-3.855 12.357-5.246-4.247-4.184-20.407-4.184-24.654 0z" />
<glyph unicode="&#xe612;" d="M355.012 94.813h-198.024v30h198.023v-30zM354.979 156.229h-197.99v30h197.99v-30zM354.979 217.563h-197.99v30h197.99v-30zM371.056 365.87c0-10.035-8.135-18.172-18.17-18.172s-18.171 8.137-18.171 18.172v45.729c0 10.033 8.136 18.17 18.171 18.17s18.17-8.137 18.17-18.17v-45.729zM178.222 411.681c0 10.035-8.136 18.17-18.17 18.17-10.036 0-18.171-8.135-18.171-18.17v-45.729c0-10.035 8.135-18.17 18.171-18.17 10.034 0 18.17 8.135 18.17 18.17v45.729zM393.019 385.149v-18.615c0-22.131-18.004-40.135-40.133-40.135-22.13 0-40.134 18.004-40.134 40.135v18.615h-112.567v-18.533c0-22.129-18.004-40.133-40.133-40.133s-40.134 18.004-40.134 40.133v18.533h-43.585v-367h359.334v367h-42.648zM395.667 58.149h-279.334v230.471h279.334v-230.471z" />
<glyph unicode="&#xe613;" d="M298.964 362.706l-223.861-223.862-24.686-120.264 122.365 22.584 223.861 223.86-97.679 97.682zM100.317 113.82l198.785 198.783 12.303-12.303-198.785-198.782-12.303 12.302zM147.495 66.352l-12.303 12.303 198.785 198.783 12.303-12.303-198.785-198.783zM462.417 330.797l-43.879-43.878-97.682 97.68 43.879 43.878 97.682-97.68z" />
<glyph unicode="&#xe614;" d="M397.183 239.768c-1.015-33.106-37.573-53.661-141.711-53.661-104.374 0-140.86 20.65-141.716 53.89 25.423 0 73.798 33.608 141.716 33.608 66.167-0.001 120.395-33.837 141.711-33.837zM255.472 169.553c-34.741 0-63.032 2.252-85.57 6.811 1.048-9.526 7.906-57.022 40.59-57.022 29.017 0 28.203 22.591 45.85 22.591s19.713-22.591 48.065-22.591c35.23 0 41.469 52.582 42.032 58.182-23.356-5.339-53.39-7.971-90.967-7.971zM363.408 182.275c-0.658-37.275-12.077-81.865-38.423-110.499-17.674-19.208-40.062-28.946-66.543-28.946-26.552 0-48.842 9.139-66.254 27.16-27.744 28.717-38.8 74.585-40.386 110.906-8.827 2.711-17.026 5.955-25.021 10.785-0.261-42.43 11.864-102.007 47.55-138.943 22.27-23.050 50.568-34.738 84.111-34.738 33.235 0 62.564 12.781 84.815 36.962 35.91 39.027 46.524 97.499 44.843 139.248-7.716-5.306-15.91-8.949-24.692-11.935zM258.311 370.822l-5.279-10.699-11.808-1.716 8.544-8.328-2.017-11.76 10.56 5.551 10.561-5.551-2.016 11.76 8.544 8.328-11.808 1.716-5.281 10.699zM379.837 374.369c0 0-42.748 11.764-123.837 55.631-81.089-43.867-123.837-55.631-123.837-55.631s-21.811-41.208-61.54-86.11l38.183-32.759c25.834 2.833 78.195 35.75 147.194 35.75s121.36-32.917 147.194-35.75l38.183 32.759c-39.73 44.902-61.54 86.11-61.54 86.11zM272.908 319.193c-8.863-2.254-10.202-3.218-14.738-6.892-4.537 3.674-5.876 4.639-14.736 6.892-12.325 3.134-19.393 11.265-19.393 22.306 0 6.175 2.482 11.859 5.356 19.67 3.238 8.797 1.402 11.587-2.008 15.139l-2.902 3.020 16.622 14.065c1.646-1.683 3.961-4.771 8.2-4.771 4.174 0 6.999 3.002 8.901 4.666 1.717-1.551 4.521-4.666 8.818-4.666 4.184 0 6.419 2.947 8.259 4.829 3.645-3.228 0.32-0.38 16.564-14.124l-2.902-3.020c-3.409-3.552-5.246-6.342-2.008-15.139 2.875-7.812 5.356-13.496 5.356-19.67 0.002-11.040-7.066-19.171-19.389-22.305z" />
<glyph unicode="&#xe615;" d="M333.408 190.105c0-36.471-29.193-60.373-72.772-60.373-38.325 0-76.847 17.375-76.651 47.289 0.059 9.023 6.799 17.308 15.763 17.308 22.563 0 22.356-33.534 58.288-33.534 25.216 0 33.816 13.754 33.816 23.335 0 34.617-108.96 13.395-108.96 78.505 0 35.235 28.949 59.543 74.448 56.871 43.396-2.549 68.819-21.636 71.285-39.465 1.215-11.643-6.533-20.702-19.979-20.702-19.627 0-21.636 26.169-55.429 26.169-15.249 0-28.126-6.336-28.126-20.090 0.001-28.745 108.317-12.055 108.317-75.313zM462 380v-312c0-27.614-22.386-50-50-50h-312c-27.614 0-50 22.386-50 50v312c0 27.614 22.386 50 50 50h312c27.614 0 50-22.386 50-50zM400.2 158.986c0 15.209-4.337 29.4-11.819 41.428 1.342 7.631 2.084 15.466 2.084 23.481 0 74.32-60.251 134.569-134.572 134.569-8.469 0-16.743-0.818-24.779-2.315-11.885 7.236-25.842 11.404-40.775 11.404-43.378 0-78.537-35.16-78.537-78.537 0-15.118 4.281-29.229 11.68-41.211-1.394-7.766-2.159-15.744-2.159-23.91 0-74.324 60.249-134.575 134.571-134.575 8.626 0 17.048 0.846 25.219 2.396 11.84-7.152 25.712-11.271 40.553-11.271 43.372 0.001 78.534 35.164 78.534 78.541z" />
<glyph unicode="&#xe616;" d="M407.299 393.265c-21.361 21.361-81.033 36.735-151.303 36.735-70.271 0-129.942-15.374-151.304-36.735-10.641-10.641-8.277-18.72-6.331-29.874 8.944-51.25 44.276-245.224 56.189-311.598 36.188-45.058 165.662-45.058 201.849 0 12.036 64.394 48.812 264.504 57.468 313.307 1.516 8.537 4.219 17.378-6.568 28.165zM194.099 205.199l-8.955 5.871 33.177 0.143 14.185-30.257-9.202 5.809c-13.136-20.805-18.655-32.003-14.458-45.026-33.151 32.615-29.487 39.587-14.747 63.46zM205.429 228.854l14.202 25.73c3.535 6.895 22.747 1.358 30.679-16.309l-14.485-26.237-30.396 16.816zM254.025 134.945h-31.459c-7.746-0.244-12.201 19.246-0.582 34.736h32.041v-34.736zM255.082 223.615l9.537 5.239c-11.846 21.565-18.973 31.813-32.402 34.446 44.585 13.22 47.164 7.429 62.667-17.812l9.474 4.991-14.359-30.018-34.917 3.154zM310.706 223.522l16.568-26.742c4.286-6.457-9.934-20.509-29.222-18.79l-16.876 27.237 29.53 18.295zM282.547 135.58l-0.090-10.592-18.681 29.332 19.15 26.675-0.091-10.882c24.604-0.207 37.030 0.998 45.888 11.425-10.263-45.353-17.144-45.958-46.176-45.958zM256.804 341.642c-67.088 0-121.474 12.811-121.474 28.613s54.386 28.612 121.474 28.612c67.088 0 121.473-12.811 121.473-28.612 0-15.803-54.384-28.613-121.473-28.613z" />
<glyph unicode="&#xe617;" d="M462 351.777c-15.158-6.724-31.449-11.269-48.547-13.31 17.449 10.461 30.854 27.025 37.164 46.764-16.333-9.687-34.422-16.721-53.676-20.511-15.418 16.428-37.386 26.691-61.698 26.691-54.56 0-94.668-50.916-82.337-103.787-70.25 3.524-132.534 37.177-174.223 88.314-22.142-37.983-11.485-87.691 26.158-112.85-13.854 0.438-26.891 4.241-38.285 10.574-0.917-39.162 27.146-75.781 67.795-83.949-11.896-3.237-24.926-3.978-38.17-1.447 10.754-33.58 41.972-58.018 78.96-58.699-35.537-27.849-80.295-40.288-125.141-35.003 37.406-23.982 81.837-37.977 129.571-37.977 156.932 0 245.595 132.551 240.251 251.435 16.517 11.917 30.846 26.804 42.178 43.755z" />
<glyph unicode="&#xe618;" d="M273.166 394.703v18.13c0 9.48-7.686 17.167-17.166 17.167s-17.167-7.687-17.167-17.167v-18.055c-118.716-8.969-178.045-96.026-188.833-170.066 32.003 45.959 105.33 45.959 137.333 0 31.576 45.331 103.805 46.085 135.909 0 32.002 45.959 106.755 45.959 138.758 0-10.729 73.68-70.812 160.226-188.834 169.991zM273.166 221.31v-151.81c0-28.432-23.059-51.5-51.5-51.5-28.44 0-51.5 23.068-51.5 51.5v17.166h34.334v-17.166c0-9.455 7.703-17.166 17.167-17.166s17.167 7.711 17.167 17.166v152.203c11.667 3.881 21.801 4.15 34.332-0.393z" />
<glyph unicode="&#xe619;" d="M239.939 248.648h32.121v-97.421h-32.121v97.421zM256 100.981c-9.574 0-17.334 7.761-17.334 17.334 0 9.574 7.76 17.335 17.334 17.335 9.573 0 17.334-7.761 17.334-17.335s-7.761-17.334-17.334-17.334zM256 401.93l-206-356.803h412l-206 356.803zM256 321.93l136.718-236.803h-273.436l136.718 236.803z" />
<glyph unicode="&#xe61a;" d="M129.861 430h24.735l16.933-63.551 15.736 63.551h24.951l-28.58-94.504v-64.486h-24.558v64.486l-29.217 94.504zM211.104 300.261c0-20.668 10.8-31.428 31.949-31.428 17.538 0 31.35 11.729 31.35 31.428v57.489c0 18.357-13.674 31.509-31.35 31.509-19.204 0-31.949-12.691-31.949-31.509v-57.489zM233.544 355.816c0 6.419 2.956 11.184 9.081 11.184 6.688 0 9.549-4.622 9.549-11.184v-54.555c0-6.385-3.254-11.104-9.122-11.104-6.022 0-9.508 4.926-9.508 11.104v54.555zM333.349 388.294v-89.025c-2.657-3.328-8.569-8.783-12.821-8.783-4.666 0-5.809 3.186-5.809 7.902v89.906h-21.806v-98.029c0-11.586 3.543-20.949 15.232-20.949 6.598 0 15.755 3.433 25.203 14.641v-12.947h21.806v117.284h-21.805zM301.273 147.866c1.48-1.954 2.22-4.815 2.22-8.583v-57.672c0-3.561-0.601-6.127-1.798-7.698-2.289-2.996-7.246-2.86-10.625-1.149-1.589 0.8-3.227 2.11-4.916 3.926v69.607c1.409 1.533 2.835 2.669 4.281 3.403 3.635 1.84 8.327 1.482 10.838-1.834zM371.182 150.396c-7.695 0-9.277-5.415-9.277-13.091v-11.307h18.347v11.307c-0.001 7.549-1.602 13.091-9.070 13.091zM434.516 68c0-27.614-22.386-50-50-50h-257.032c-27.614 0-50 22.386-50 50v126.316c0 27.615 22.386 50 50 50h257.031c27.614 0 50-22.385 50-50v-126.316zM161.734 184.872h24.195v21.978h-71.778v-21.978h24.195v-129.44h23.388v129.44zM244.924 167.129h-20.768v-84.785c-2.534-3.174-8.163-8.365-12.211-8.365-4.442 0-5.531 3.033-5.531 7.527v85.623h-20.768v-93.359c0-22.664 15.367-22.803 26.561-16.391 4.141 2.376 8.121 5.839 11.949 10.383v-12.33h20.768v111.697zM324.866 140.541c0 15.15-5.037 27.999-20.247 27.999-7.416 0-13.779-4.727-18.465-10.437v48.747h-20.97v-151.418h20.97v8.586c5.789-7.219 12.121-9.998 19.725-9.998 13.818 0 18.987 10.733 18.987 24.555v61.966zM401.624 137.099c0 20.188-9.627 32.853-29.55 32.853-18.734 0-31.543-13.463-31.543-32.853v-50.136c0-20.107 10.141-34.557 29.971-34.557 21.884 0 31.122 13.034 31.122 34.557v8.39h-21.373v-7.763c0-9.725-0.511-15.625-9.277-15.625-8.361 0-9.069 7.246-9.069 15.625v21.071h39.72v28.438z" />
</font>
</defs>
</svg>
