<?xml version="1.0" standalone="no"?>
<!DOCTYPE svg PUBLIC "-//W3C//DTD SVG 20010904//EN"
 "http://www.w3.org/TR/2001/REC-SVG-20010904/DTD/svg10.dtd">
<svg version="1.0" xmlns="http://www.w3.org/2000/svg"
 width="504.000000pt" height="238.000000pt" viewBox="0 0 504.000000 238.000000"
 preserveAspectRatio="xMidYMid meet">
<metadata>
Created by potrace 1.12, written by Peter Selinger 2001-2015
</metadata>
<g transform="translate(0.000000,238.000000) scale(0.100000,-0.100000)"
fill="#FFFFFF" stroke="none">
<path d="M2055 2243 c-566 -28 -1062 -107 -1425 -224 -126 -41 -348 -144 -386
-180 -11 -10 -25 -19 -30 -19 -15 0 -48 -38 -70 -80 -18 -33 -19 -69 -22 -519
-2 -314 1 -502 8 -534 63 -296 826 -523 1945 -578 260 -13 770 -7 1015 11 925
69 1614 265 1782 507 l33 48 3 490 c2 270 0 505 -3 523 -4 21 -22 48 -50 75
-55 53 -83 77 -92 78 -5 0 -35 16 -68 34 -339 190 -969 322 -1745 365 -157 9
-743 11 -895 3z m1120 -918 c269 -23 529 -58 749 -102 l189 -37 -59 -13 c-32
-7 -77 -15 -99 -19 -21 -3 -42 -7 -45 -9 -4 -2 -51 -11 -106 -20 -54 -9 -110
-18 -124 -20 -71 -12 -345 -45 -415 -50 -44 -3 -93 -8 -110 -10 -136 -20 -997
-28 -1230 -12 -66 5 -142 10 -170 12 -148 10 -396 43 -600 80 -224 41 -287 54
-292 58 -6 6 188 46 367 76 180 31 493 65 730 80 215 15 994 6 1215 -14z"/>
</g>
</svg>
